<svg width="1080" height="1080" viewBox="0 0 1080 1080" fill="none" xmlns="http://www.w3.org/2000/svg">
  <defs>
    <linearGradient id="human" x1="284" y1="392" x2="438" y2="568" gradientUnits="userSpaceOnUse">
      <stop stop-color="#FFD9B0"/>
      <stop offset="1" stop-color="#FFB57C"/>
    </linearGradient>
    <linearGradient id="robot" x1="561" y1="392" x2="715" y2="568" gradientUnits="userSpaceOnUse">
      <stop stop-color="#80FFEA"/>
      <stop offset="1" stop-color="#7C5CFF"/>
    </linearGradient>
    <linearGradient id="arrow" x1="423" y1="502" x2="577" y2="537" gradientUnits="userSpaceOnUse">
      <stop stop-color="#80FFEA"/>
      <stop offset="1" stop-color="#7C5CFF"/>
    </linearGradient>
  </defs>

  <rect width="1080" height="1080" fill="#FFFFFF"/>

  <g transform="translate(116 100) scale(1.68)">
    <circle cx="136" cy="206" r="56" fill="url(#human)"/>
    <rect x="92" y="258" width="88" height="62" rx="28" fill="url(#human)"/>

    <rect x="320" y="150" width="96" height="112" rx="18" fill="url(#robot)"/>
    <rect x="340" y="176" width="56" height="28" rx="10" fill="#0B0F1A" fill-opacity="0.5"/>
    <circle cx="350" cy="190" r="6" fill="#80FFEA"/>
    <circle cx="372" cy="190" r="6" fill="#80FFEA"/>
    <circle cx="394" cy="190" r="6" fill="#80FFEA"/>
    <rect x="332" y="268" width="72" height="52" rx="16" fill="url(#robot)"/>

    <path d="M196 256h120" stroke="url(#arrow)" stroke-width="14" stroke-linecap="round"/>
    <path d="M300 236l20 20-20 20" stroke="url(#arrow)" stroke-width="14" stroke-linecap="round" stroke-linejoin="round"/>
    <path d="M212 236l-20 20 20 20" stroke="url(#arrow)" stroke-width="14" stroke-linecap="round" stroke-linejoin="round"/>
  </g>
</svg>
